<svg width="256" height="256" viewBox="0 0 256 256" fill="none" xmlns="http://www.w3.org/2000/svg" role="img" aria-labelledby="title desc">
  <title id="title">Cliplog icon</title>
  <desc id="desc">A cute clipboard character with a small clip and saved notes.</desc>
  <rect width="256" height="256" rx="56" fill="#F7FAFF"/>
  <rect x="28" y="28" width="200" height="200" rx="46" fill="#EAF1FF"/>
  <path d="M176 54h10c14.359 0 26 11.641 26 26v108c0 14.359-11.641 26-26 26H70c-14.359 0-26-11.641-26-26V80c0-14.359 11.641-26 26-26h10" fill="#FFFFFF"/>
  <path d="M176 54h10c14.359 0 26 11.641 26 26v108c0 14.359-11.641 26-26 26H70c-14.359 0-26-11.641-26-26V80c0-14.359 11.641-26 26-26h10" stroke="#23314D" stroke-width="10" stroke-linecap="round"/>
  <path d="M91 42h74c8.284 0 15 6.716 15 15v16c0 8.284-6.716 15-15 15H91c-8.284 0-15-6.716-15-15V57c0-8.284 6.716-15 15-15Z" fill="#9BC8FF" stroke="#23314D" stroke-width="10"/>
  <path d="M105 42c2.671-10.344 12.064-18 23.25-18S148.829 31.656 151.5 42" stroke="#23314D" stroke-width="10" stroke-linecap="round"/>
  <path d="M78 118h68" stroke="#86A0C7" stroke-width="10" stroke-linecap="round"/>
  <path d="M78 149h100" stroke="#86A0C7" stroke-width="10" stroke-linecap="round"/>
  <path d="M78 180h58" stroke="#86A0C7" stroke-width="10" stroke-linecap="round"/>
  <path d="M151 109c0 8.284 6.716 15 15 15h18v-16c0-8.837-7.163-16-16-16h-17v17Z" fill="#FFE58A" stroke="#23314D" stroke-width="8" stroke-linejoin="round"/>
  <circle cx="106" cy="112" r="6" fill="#23314D"/>
  <circle cx="133" cy="112" r="6" fill="#23314D"/>
  <path d="M111 131c6.653 6 15.347 6 22 0" stroke="#23314D" stroke-width="7" stroke-linecap="round"/>
  <path d="M199 42l3.484 9.516L212 55l-9.516 3.484L199 68l-3.484-9.516L186 55l9.516-3.484L199 42Z" fill="#FFB86B"/>
  <path d="M55 196l2.419 6.581L64 205l-6.581 2.419L55 214l-2.419-6.581L46 205l6.581-2.419L55 196Z" fill="#7BDCB5"/>
</svg>
